<svg width="25" height="25" viewBox="0 0 25 25" fill="none" xmlns="http://www.w3.org/2000/svg">
<path d="M4.76561 4.76558C5.05863 4.47266 5.45598 4.30811 5.8703 4.30811C6.28462 4.30811 6.68198 4.47266 6.97499 4.76558L12.5 10.2906L18.025 4.76558C18.3197 4.48096 18.7144 4.32347 19.1241 4.32703C19.5337 4.33059 19.9256 4.49492 20.2153 4.78462C20.505 5.07432 20.6694 5.46621 20.6729 5.8759C20.6765 6.28558 20.519 6.68027 20.2344 6.97496L14.7094 12.5L20.2344 18.025C20.519 18.3197 20.6765 18.7143 20.6729 19.124C20.6694 19.5337 20.505 19.9256 20.2153 20.2153C19.9256 20.505 19.5337 20.6693 19.1241 20.6729C18.7144 20.6764 18.3197 20.519 18.025 20.2343L12.5 14.7093L6.97499 20.2343C6.6803 20.519 6.28561 20.6764 5.87593 20.6729C5.46624 20.6693 5.07435 20.505 4.78465 20.2153C4.49495 19.9256 4.33062 19.5337 4.32706 19.124C4.3235 18.7143 4.48099 18.3197 4.76561 18.025L10.2906 12.5L4.76561 6.97496C4.47269 6.68195 4.30814 6.28459 4.30814 5.87027C4.30814 5.45595 4.47269 5.0586 4.76561 4.76558Z" fill="#4807FF"/>
</svg>
